<mxfile host="app.diagrams.net" modified="2023-11-07T14:55:55.520Z" agent="Mozilla/5.0 (Macintosh; Intel Mac OS X 10_15_7) AppleWebKit/537.36 (KHTML, like Gecko) Chrome/119.0.0.0 Safari/537.36" etag="i5M9w3WjC83o85R9JLtO" version="21.3.5" type="device">
  <diagram name="Page 2" id="0">
    <mxGraphModel dx="1196" dy="625" grid="1" gridSize="10" guides="1" tooltips="1" connect="1" arrows="1" fold="1" page="1" pageScale="1" pageWidth="827" pageHeight="1169" math="1" shadow="0">
      <root>
        <mxCell id="0" />
        <mxCell id="1" parent="0" />
        <mxCell id="s7xE1_Ra3MrSERXKoCT5-127" style="edgeStyle=orthogonalEdgeStyle;rounded=0;orthogonalLoop=1;jettySize=auto;html=1;exitX=1;exitY=0.5;exitDx=0;exitDy=0;exitPerimeter=0;entryX=0.5;entryY=0;entryDx=0;entryDy=0;" parent="1" source="8" target="s7xE1_Ra3MrSERXKoCT5-117" edge="1">
          <mxGeometry relative="1" as="geometry">
            <Array as="points">
              <mxPoint x="140" y="560" />
            </Array>
          </mxGeometry>
        </mxCell>
        <mxCell id="s7xE1_Ra3MrSERXKoCT5-128" style="edgeStyle=orthogonalEdgeStyle;rounded=0;orthogonalLoop=1;jettySize=auto;html=1;entryX=0.5;entryY=0;entryDx=0;entryDy=0;" parent="1" source="8" target="s7xE1_Ra3MrSERXKoCT5-89" edge="1">
          <mxGeometry relative="1" as="geometry">
            <Array as="points">
              <mxPoint x="470" y="560" />
            </Array>
          </mxGeometry>
        </mxCell>
        <mxCell id="8" value="Среди невыделенных&#xa;элементов есть 0?" style="graphMlID=n6;gradientDirection=east;shape=mxgraph.flowchart.decision;strokeWidth=1.0;fontSize=10;direction=west;" parent="1" vertex="1">
          <mxGeometry x="200" y="535" width="200" height="50" as="geometry" />
        </mxCell>
        <mxCell id="s7xE1_Ra3MrSERXKoCT5-95" style="edgeStyle=orthogonalEdgeStyle;rounded=0;orthogonalLoop=1;jettySize=auto;html=1;entryX=0.5;entryY=0;entryDx=0;entryDy=0;exitX=1;exitY=0.5;exitDx=0;exitDy=0;fontSize=10;" parent="1" source="s7xE1_Ra3MrSERXKoCT5-109" target="s7xE1_Ra3MrSERXKoCT5-94" edge="1">
          <mxGeometry relative="1" as="geometry">
            <mxPoint x="579.92" y="735" as="sourcePoint" />
            <Array as="points">
              <mxPoint x="590" y="673" />
            </Array>
          </mxGeometry>
        </mxCell>
        <mxCell id="s7xE1_Ra3MrSERXKoCT5-107" style="edgeStyle=orthogonalEdgeStyle;rounded=0;orthogonalLoop=1;jettySize=auto;html=1;entryX=0.5;entryY=0;entryDx=0;entryDy=0;exitX=0;exitY=0.5;exitDx=0;exitDy=0;fontSize=10;" parent="1" source="s7xE1_Ra3MrSERXKoCT5-109" target="s7xE1_Ra3MrSERXKoCT5-106" edge="1">
          <mxGeometry relative="1" as="geometry">
            <mxPoint x="369.92" y="735" as="sourcePoint" />
            <Array as="points">
              <mxPoint x="350" y="673" />
            </Array>
          </mxGeometry>
        </mxCell>
        <mxCell id="s7xE1_Ra3MrSERXKoCT5-64" style="edgeStyle=orthogonalEdgeStyle;rounded=0;orthogonalLoop=1;jettySize=auto;html=1;entryX=0.5;entryY=0;entryDx=0;entryDy=0;endArrow=none;endFill=0;fontSize=10;" parent="1" source="s7xE1_Ra3MrSERXKoCT5-54" target="s7xE1_Ra3MrSERXKoCT5-63" edge="1">
          <mxGeometry relative="1" as="geometry" />
        </mxCell>
        <mxCell id="s7xE1_Ra3MrSERXKoCT5-54" value="Начало" style="rounded=1;whiteSpace=wrap;html=1;arcSize=50;fontSize=10;" parent="1" vertex="1">
          <mxGeometry x="389.92" y="20" width="200" height="50" as="geometry" />
        </mxCell>
        <mxCell id="s7xE1_Ra3MrSERXKoCT5-60" value="Да" style="text;html=1;align=center;verticalAlign=middle;resizable=0;points=[];autosize=1;strokeColor=none;fillColor=none;fontSize=10;" parent="1" vertex="1">
          <mxGeometry x="589.9199999999998" y="390" width="40" height="30" as="geometry" />
        </mxCell>
        <mxCell id="s7xE1_Ra3MrSERXKoCT5-67" style="edgeStyle=orthogonalEdgeStyle;rounded=0;orthogonalLoop=1;jettySize=auto;html=1;entryX=0.5;entryY=0;entryDx=0;entryDy=0;endArrow=none;endFill=0;fontSize=10;" parent="1" source="s7xE1_Ra3MrSERXKoCT5-63" target="s7xE1_Ra3MrSERXKoCT5-66" edge="1">
          <mxGeometry relative="1" as="geometry" />
        </mxCell>
        <mxCell id="s7xE1_Ra3MrSERXKoCT5-63" value="&lt;div style=&quot;font-size: 10px;&quot;&gt;В каждом столбце матрицы \(С\) найти&amp;nbsp;&lt;span style=&quot;background-color: initial; font-size: 10px;&quot;&gt;наименьший элемент и вычесть его&amp;nbsp;&lt;/span&gt;&lt;span style=&quot;background-color: initial; font-size: 10px;&quot;&gt;из всех элементов этого столбца&lt;/span&gt;&lt;/div&gt;" style="rounded=0;whiteSpace=wrap;html=1;fontSize=10;" parent="1" vertex="1">
          <mxGeometry x="390" y="90" width="200" height="50" as="geometry" />
        </mxCell>
        <mxCell id="s7xE1_Ra3MrSERXKoCT5-70" style="edgeStyle=orthogonalEdgeStyle;rounded=0;orthogonalLoop=1;jettySize=auto;html=1;entryX=0.5;entryY=0;entryDx=0;entryDy=0;endArrow=none;endFill=0;fontSize=10;" parent="1" source="s7xE1_Ra3MrSERXKoCT5-66" target="s7xE1_Ra3MrSERXKoCT5-69" edge="1">
          <mxGeometry relative="1" as="geometry" />
        </mxCell>
        <mxCell id="s7xE1_Ra3MrSERXKoCT5-66" value="&lt;div style=&quot;font-size: 10px;&quot;&gt;В полученной матрице в каждой&amp;nbsp;&lt;span style=&quot;background-color: initial; font-size: 10px;&quot;&gt;строке найти наименьший элемент&amp;nbsp;&lt;/span&gt;&lt;span style=&quot;background-color: initial; font-size: 10px;&quot;&gt;и вычесть его из всех элементов&amp;nbsp;&lt;/span&gt;&lt;span style=&quot;background-color: initial; font-size: 10px;&quot;&gt;этой строки&lt;/span&gt;&lt;/div&gt;" style="rounded=0;whiteSpace=wrap;html=1;fontSize=10;" parent="1" vertex="1">
          <mxGeometry x="390" y="160" width="200" height="50" as="geometry" />
        </mxCell>
        <mxCell id="s7xE1_Ra3MrSERXKoCT5-73" style="edgeStyle=orthogonalEdgeStyle;rounded=0;orthogonalLoop=1;jettySize=auto;html=1;entryX=0.5;entryY=0;entryDx=0;entryDy=0;endArrow=none;endFill=0;fontSize=10;" parent="1" source="s7xE1_Ra3MrSERXKoCT5-69" target="s7xE1_Ra3MrSERXKoCT5-72" edge="1">
          <mxGeometry relative="1" as="geometry" />
        </mxCell>
        <mxCell id="s7xE1_Ra3MrSERXKoCT5-69" value="&lt;div style=&quot;font-size: 10px;&quot;&gt;Просмотреть матрицу по столбцам&amp;nbsp;&lt;span style=&quot;background-color: initial; font-size: 10px;&quot;&gt;сверху вниз в поисках первого \(0\),&amp;nbsp;&lt;/span&gt;&lt;span style=&quot;background-color: initial; font-size: 10px;&quot;&gt;в одной строке с которым не стоит&amp;nbsp;&lt;/span&gt;\(0^{*}\)&lt;span style=&quot;background-color: initial; font-size: 10px;&quot;&gt;. Если найден, то отметить его \(0^{*}\)&lt;/span&gt;&lt;/div&gt;" style="rounded=0;whiteSpace=wrap;html=1;fontSize=10;" parent="1" vertex="1">
          <mxGeometry x="390" y="230" width="200" height="50" as="geometry" />
        </mxCell>
        <mxCell id="s7xE1_Ra3MrSERXKoCT5-130" style="edgeStyle=orthogonalEdgeStyle;rounded=0;orthogonalLoop=1;jettySize=auto;html=1;entryX=0.5;entryY=0;entryDx=0;entryDy=0;endArrow=none;endFill=0;" parent="1" source="s7xE1_Ra3MrSERXKoCT5-72" target="s7xE1_Ra3MrSERXKoCT5-110" edge="1">
          <mxGeometry relative="1" as="geometry" />
        </mxCell>
        <mxCell id="s7xE1_Ra3MrSERXKoCT5-72" value="\(k\) - число \(0^{*}\) в полученной матрице" style="rounded=0;whiteSpace=wrap;html=1;fontSize=10;" parent="1" vertex="1">
          <mxGeometry x="390" y="300" width="200" height="50" as="geometry" />
        </mxCell>
        <mxCell id="s7xE1_Ra3MrSERXKoCT5-77" style="edgeStyle=orthogonalEdgeStyle;rounded=0;orthogonalLoop=1;jettySize=auto;html=1;entryX=0.5;entryY=0;entryDx=0;entryDy=0;endArrow=none;endFill=0;fontSize=10;" parent="1" source="s7xE1_Ra3MrSERXKoCT5-75" target="s7xE1_Ra3MrSERXKoCT5-76" edge="1">
          <mxGeometry relative="1" as="geometry" />
        </mxCell>
        <mxCell id="s7xE1_Ra3MrSERXKoCT5-75" value="Записать \(opt\) решение задачи:&lt;br style=&quot;border-color: var(--border-color); font-family: dialog; font-size: 10px;&quot;&gt;&lt;span style=&quot;font-family: dialog; font-size: 10px;&quot;&gt;\(x_{ij}^{opt} = 1\)&lt;/span&gt;&lt;br style=&quot;border-color: var(--border-color); font-family: dialog; font-size: 10px;&quot;&gt;&lt;span style=&quot;font-family: dialog; font-size: 10px;&quot;&gt;если в позиции текущей матрицы &lt;br&gt;стоимостей \((i, j)\) стоит \(0^{*}\)&amp;nbsp;&lt;/span&gt;&lt;span style=&quot;font-family: dialog; font-size: 10px;&quot;&gt;иначе \(0\)&lt;/span&gt;" style="rounded=0;whiteSpace=wrap;html=1;fontSize=10;" parent="1" vertex="1">
          <mxGeometry x="620" y="440" width="200" height="50" as="geometry" />
        </mxCell>
        <mxCell id="s7xE1_Ra3MrSERXKoCT5-79" style="edgeStyle=orthogonalEdgeStyle;rounded=0;orthogonalLoop=1;jettySize=auto;html=1;entryX=0.5;entryY=0;entryDx=0;entryDy=0;endArrow=none;endFill=0;fontSize=10;" parent="1" source="s7xE1_Ra3MrSERXKoCT5-76" target="s7xE1_Ra3MrSERXKoCT5-78" edge="1">
          <mxGeometry relative="1" as="geometry" />
        </mxCell>
        <mxCell id="s7xE1_Ra3MrSERXKoCT5-76" value="\(f_{opt} = f(x_{opt})\)" style="rounded=0;whiteSpace=wrap;html=1;fontSize=10;" parent="1" vertex="1">
          <mxGeometry x="620" y="510" width="200" height="50" as="geometry" />
        </mxCell>
        <mxCell id="s7xE1_Ra3MrSERXKoCT5-81" style="edgeStyle=orthogonalEdgeStyle;rounded=0;orthogonalLoop=1;jettySize=auto;html=1;entryX=0.5;entryY=0;entryDx=0;entryDy=0;endArrow=none;endFill=0;fontSize=10;" parent="1" source="s7xE1_Ra3MrSERXKoCT5-78" target="s7xE1_Ra3MrSERXKoCT5-80" edge="1">
          <mxGeometry relative="1" as="geometry" />
        </mxCell>
        <mxCell id="s7xE1_Ra3MrSERXKoCT5-78" value="\(x_{opt}, f_{opt}\)" style="shape=parallelogram;html=1;strokeWidth=2;perimeter=parallelogramPerimeter;whiteSpace=wrap;rounded=1;arcSize=12;size=0.23;fontSize=10;" parent="1" vertex="1">
          <mxGeometry x="620" y="580" width="200" height="50" as="geometry" />
        </mxCell>
        <mxCell id="s7xE1_Ra3MrSERXKoCT5-80" value="Конец" style="rounded=1;whiteSpace=wrap;html=1;arcSize=50;fontSize=10;" parent="1" vertex="1">
          <mxGeometry x="620" y="650" width="200" height="50" as="geometry" />
        </mxCell>
        <mxCell id="s7xE1_Ra3MrSERXKoCT5-82" value="Выделить &quot;+&quot; все столбцы матрицы,&amp;nbsp;&lt;span style=&quot;font-family: dialog; font-size: 10px;&quot;&gt;где есть 0*&lt;/span&gt;" style="rounded=0;whiteSpace=wrap;html=1;fontSize=10;" parent="1" vertex="1">
          <mxGeometry x="200" y="440" width="200" height="50" as="geometry" />
        </mxCell>
        <mxCell id="s7xE1_Ra3MrSERXKoCT5-84" style="edgeStyle=orthogonalEdgeStyle;rounded=0;orthogonalLoop=1;jettySize=auto;html=1;entryX=0.5;entryY=1;entryDx=0;entryDy=0;entryPerimeter=0;endArrow=none;endFill=0;fontSize=10;" parent="1" source="s7xE1_Ra3MrSERXKoCT5-82" target="8" edge="1">
          <mxGeometry relative="1" as="geometry" />
        </mxCell>
        <mxCell id="s7xE1_Ra3MrSERXKoCT5-88" style="edgeStyle=orthogonalEdgeStyle;rounded=0;orthogonalLoop=1;jettySize=auto;html=1;fontSize=10;" parent="1" source="s7xE1_Ra3MrSERXKoCT5-85" edge="1">
          <mxGeometry relative="1" as="geometry">
            <mxPoint x="300" y="510" as="targetPoint" />
            <Array as="points">
              <mxPoint x="371" y="510" />
              <mxPoint x="300" y="511" />
            </Array>
          </mxGeometry>
        </mxCell>
        <mxCell id="s7xE1_Ra3MrSERXKoCT5-85" value="A" style="strokeWidth=2;html=1;shape=mxgraph.flowchart.start_2;whiteSpace=wrap;fontSize=10;" parent="1" vertex="1">
          <mxGeometry x="440" y="490" width="40" height="40" as="geometry" />
        </mxCell>
        <mxCell id="s7xE1_Ra3MrSERXKoCT5-86" value="A" style="strokeWidth=2;html=1;shape=mxgraph.flowchart.start_2;whiteSpace=wrap;fontSize=10;" parent="1" vertex="1">
          <mxGeometry x="569.92" y="800" width="40" height="40" as="geometry" />
        </mxCell>
        <mxCell id="s7xE1_Ra3MrSERXKoCT5-87" value="A" style="strokeWidth=2;html=1;shape=mxgraph.flowchart.start_2;whiteSpace=wrap;fontSize=10;" parent="1" vertex="1">
          <mxGeometry x="120" y="800" width="40" height="40" as="geometry" />
        </mxCell>
        <mxCell id="s7xE1_Ra3MrSERXKoCT5-124" style="edgeStyle=orthogonalEdgeStyle;rounded=0;orthogonalLoop=1;jettySize=auto;html=1;exitX=0.5;exitY=1;exitDx=0;exitDy=0;entryX=0.5;entryY=0;entryDx=0;entryDy=0;endArrow=none;endFill=0;fontSize=10;" parent="1" source="s7xE1_Ra3MrSERXKoCT5-89" target="s7xE1_Ra3MrSERXKoCT5-109" edge="1">
          <mxGeometry relative="1" as="geometry" />
        </mxCell>
        <mxCell id="s7xE1_Ra3MrSERXKoCT5-89" value="Отметить его \(0^{&#39;}\)" style="rounded=0;whiteSpace=wrap;html=1;fontSize=10;" parent="1" vertex="1">
          <mxGeometry x="369.91999999999996" y="580" width="200" height="50" as="geometry" />
        </mxCell>
        <mxCell id="s7xE1_Ra3MrSERXKoCT5-93" value="Да" style="text;html=1;align=center;verticalAlign=middle;resizable=0;points=[];autosize=1;strokeColor=none;fillColor=none;fontSize=10;" parent="1" vertex="1">
          <mxGeometry x="400" y="535" width="40" height="30" as="geometry" />
        </mxCell>
        <mxCell id="s7xE1_Ra3MrSERXKoCT5-94" value="Перенести выделение со столбца&lt;br style=&quot;border-color: var(--border-color); font-family: dialog; text-align: left; font-size: 10px;&quot;&gt;с&amp;nbsp;\(0^{*}\)&lt;span style=&quot;font-family: dialog; text-align: left; font-size: 10px;&quot;&gt;&amp;nbsp;на строку с&amp;nbsp;&lt;/span&gt;\(0^{&#39;}\)" style="rounded=0;whiteSpace=wrap;html=1;fontSize=10;" parent="1" vertex="1">
          <mxGeometry x="490" y="720" width="200" height="50" as="geometry" />
        </mxCell>
        <mxCell id="s7xE1_Ra3MrSERXKoCT5-96" value="Да" style="text;html=1;align=center;verticalAlign=middle;resizable=0;points=[];autosize=1;strokeColor=none;fillColor=none;fontSize=10;" parent="1" vertex="1">
          <mxGeometry x="559.92" y="640" width="40" height="30" as="geometry" />
        </mxCell>
        <mxCell id="s7xE1_Ra3MrSERXKoCT5-97" style="edgeStyle=orthogonalEdgeStyle;rounded=0;orthogonalLoop=1;jettySize=auto;html=1;entryX=0.5;entryY=0;entryDx=0;entryDy=0;entryPerimeter=0;fontSize=10;" parent="1" source="s7xE1_Ra3MrSERXKoCT5-94" target="s7xE1_Ra3MrSERXKoCT5-86" edge="1">
          <mxGeometry relative="1" as="geometry" />
        </mxCell>
        <mxCell id="s7xE1_Ra3MrSERXKoCT5-101" style="edgeStyle=orthogonalEdgeStyle;rounded=0;orthogonalLoop=1;jettySize=auto;html=1;exitX=0.5;exitY=1;exitDx=0;exitDy=0;entryX=0.5;entryY=0;entryDx=0;entryDy=0;endArrow=none;endFill=0;fontSize=10;" parent="1" source="s7xE1_Ra3MrSERXKoCT5-106" target="s7xE1_Ra3MrSERXKoCT5-100" edge="1">
          <mxGeometry relative="1" as="geometry">
            <mxPoint x="349.91999999999973" y="840" as="sourcePoint" />
          </mxGeometry>
        </mxCell>
        <mxCell id="s7xE1_Ra3MrSERXKoCT5-113" style="edgeStyle=orthogonalEdgeStyle;rounded=0;orthogonalLoop=1;jettySize=auto;html=1;exitX=0.5;exitY=1;exitDx=0;exitDy=0;entryX=0.5;entryY=0;entryDx=0;entryDy=0;endArrow=none;endFill=0;fontSize=10;" parent="1" source="s7xE1_Ra3MrSERXKoCT5-100" target="s7xE1_Ra3MrSERXKoCT5-112" edge="1">
          <mxGeometry relative="1" as="geometry" />
        </mxCell>
        <mxCell id="s7xE1_Ra3MrSERXKoCT5-100" value="В пределах L-цепочки заменить&lt;br style=&quot;border-color: var(--border-color); font-family: dialog; text-align: left; font-size: 10px;&quot;&gt;\( 0^{&#39;} \mapsto 0^{*} \)&lt;br style=&quot;border-color: var(--border-color); font-family: dialog; text-align: left; font-size: 10px;&quot;&gt;\( 0^{*} \mapsto 0 \)" style="rounded=0;whiteSpace=wrap;html=1;fontSize=10;" parent="1" vertex="1">
          <mxGeometry x="250" y="790" width="200" height="50" as="geometry" />
        </mxCell>
        <mxCell id="s7xE1_Ra3MrSERXKoCT5-106" value="Построить непродолжаемую &lt;br style=&quot;font-size: 10px;&quot;&gt;\(L\)-цепочку от текущего \(0^{&#39;}\)&lt;br style=&quot;border-color: var(--border-color); font-family: dialog; text-align: left; font-size: 10px;&quot;&gt;\( 0^{&#39;} \mapsto_{row} 0^{*} \mapsto_{col} 0^{&#39;} \mapsto_{row} \dots \)" style="rounded=0;whiteSpace=wrap;html=1;fontSize=10;" parent="1" vertex="1">
          <mxGeometry x="250" y="720" width="200" height="50" as="geometry" />
        </mxCell>
        <mxCell id="s7xE1_Ra3MrSERXKoCT5-109" value="В одной&lt;br style=&quot;border-color: var(--border-color); padding: 0px; margin: 0px; font-size: 10px;&quot;&gt;&lt;span style=&quot;font-size: 10px;&quot;&gt;строке с текущим \(0^{&#39;}\)&lt;/span&gt;&lt;br style=&quot;border-color: var(--border-color); padding: 0px; margin: 0px; font-size: 10px;&quot;&gt;&lt;span style=&quot;font-size: 10px;&quot;&gt;&amp;nbsp;есть \(0^{*}\)?&lt;/span&gt;" style="rhombus;whiteSpace=wrap;html=1;fontSize=10;" parent="1" vertex="1">
          <mxGeometry x="369.92" y="647.8" width="200" height="50" as="geometry" />
        </mxCell>
        <mxCell id="s7xE1_Ra3MrSERXKoCT5-125" style="edgeStyle=orthogonalEdgeStyle;rounded=0;orthogonalLoop=1;jettySize=auto;html=1;exitX=1;exitY=0.5;exitDx=0;exitDy=0;entryX=0.5;entryY=0;entryDx=0;entryDy=0;" parent="1" source="s7xE1_Ra3MrSERXKoCT5-110" target="s7xE1_Ra3MrSERXKoCT5-75" edge="1">
          <mxGeometry relative="1" as="geometry" />
        </mxCell>
        <mxCell id="s7xE1_Ra3MrSERXKoCT5-126" style="edgeStyle=orthogonalEdgeStyle;rounded=0;orthogonalLoop=1;jettySize=auto;html=1;exitX=0;exitY=0.5;exitDx=0;exitDy=0;entryX=0.5;entryY=0;entryDx=0;entryDy=0;" parent="1" source="s7xE1_Ra3MrSERXKoCT5-110" target="s7xE1_Ra3MrSERXKoCT5-82" edge="1">
          <mxGeometry relative="1" as="geometry" />
        </mxCell>
        <mxCell id="s7xE1_Ra3MrSERXKoCT5-110" value="\( k = n \)" style="rhombus;whiteSpace=wrap;html=1;fontSize=10;" parent="1" vertex="1">
          <mxGeometry x="389.92" y="390" width="200" height="50" as="geometry" />
        </mxCell>
        <mxCell id="s7xE1_Ra3MrSERXKoCT5-115" style="edgeStyle=orthogonalEdgeStyle;rounded=0;orthogonalLoop=1;jettySize=auto;html=1;exitX=0.5;exitY=1;exitDx=0;exitDy=0;entryX=0.5;entryY=0;entryDx=0;entryDy=0;endArrow=none;endFill=0;fontSize=10;" parent="1" source="s7xE1_Ra3MrSERXKoCT5-112" target="s7xE1_Ra3MrSERXKoCT5-114" edge="1">
          <mxGeometry relative="1" as="geometry" />
        </mxCell>
        <mxCell id="s7xE1_Ra3MrSERXKoCT5-112" value="Снять все выделения, кроме \(0^{*}\)" style="rounded=0;whiteSpace=wrap;html=1;fontSize=10;" parent="1" vertex="1">
          <mxGeometry x="250" y="860" width="200" height="50" as="geometry" />
        </mxCell>
        <mxCell id="s7xE1_Ra3MrSERXKoCT5-116" style="edgeStyle=orthogonalEdgeStyle;rounded=0;orthogonalLoop=1;jettySize=auto;html=1;fontSize=10;" parent="1" source="s7xE1_Ra3MrSERXKoCT5-114" edge="1">
          <mxGeometry relative="1" as="geometry">
            <mxPoint x="490" y="370" as="targetPoint" />
            <Array as="points">
              <mxPoint x="350" y="1000" />
              <mxPoint x="20" y="1000" />
              <mxPoint x="20" y="370" />
            </Array>
          </mxGeometry>
        </mxCell>
        <mxCell id="s7xE1_Ra3MrSERXKoCT5-114" value="\(k=k+1\)" style="rounded=0;whiteSpace=wrap;html=1;fontSize=10;" parent="1" vertex="1">
          <mxGeometry x="250.00000000000003" y="930" width="200" height="50" as="geometry" />
        </mxCell>
        <mxCell id="s7xE1_Ra3MrSERXKoCT5-120" style="edgeStyle=orthogonalEdgeStyle;rounded=0;orthogonalLoop=1;jettySize=auto;html=1;exitX=0.5;exitY=1;exitDx=0;exitDy=0;entryX=0.5;entryY=0;entryDx=0;entryDy=0;endArrow=none;endFill=0;fontSize=10;" parent="1" source="s7xE1_Ra3MrSERXKoCT5-117" target="s7xE1_Ra3MrSERXKoCT5-119" edge="1">
          <mxGeometry relative="1" as="geometry" />
        </mxCell>
        <mxCell id="s7xE1_Ra3MrSERXKoCT5-117" value="\(h\) - минимальный элемент из невыделенных&amp;nbsp;" style="rounded=0;whiteSpace=wrap;html=1;fontSize=10;" parent="1" vertex="1">
          <mxGeometry x="40" y="580" width="200" height="50" as="geometry" />
        </mxCell>
        <mxCell id="s7xE1_Ra3MrSERXKoCT5-122" style="edgeStyle=orthogonalEdgeStyle;rounded=0;orthogonalLoop=1;jettySize=auto;html=1;entryX=0.5;entryY=0;entryDx=0;entryDy=0;endArrow=none;endFill=0;fontSize=10;" parent="1" source="s7xE1_Ra3MrSERXKoCT5-119" target="s7xE1_Ra3MrSERXKoCT5-121" edge="1">
          <mxGeometry relative="1" as="geometry" />
        </mxCell>
        <mxCell id="s7xE1_Ra3MrSERXKoCT5-119" value="Вычесть \(h\) из невыделенных столбцов" style="rounded=0;whiteSpace=wrap;html=1;fontSize=10;" parent="1" vertex="1">
          <mxGeometry x="40" y="647.8" width="200" height="50" as="geometry" />
        </mxCell>
        <mxCell id="s7xE1_Ra3MrSERXKoCT5-121" value="Прибавить \(h\) к выделенным строкам" style="rounded=0;whiteSpace=wrap;html=1;fontSize=10;" parent="1" vertex="1">
          <mxGeometry x="40" y="720" width="200" height="50" as="geometry" />
        </mxCell>
        <mxCell id="s7xE1_Ra3MrSERXKoCT5-123" style="edgeStyle=orthogonalEdgeStyle;rounded=0;orthogonalLoop=1;jettySize=auto;html=1;entryX=0.5;entryY=0;entryDx=0;entryDy=0;entryPerimeter=0;fontSize=10;" parent="1" source="s7xE1_Ra3MrSERXKoCT5-121" target="s7xE1_Ra3MrSERXKoCT5-87" edge="1">
          <mxGeometry relative="1" as="geometry" />
        </mxCell>
      </root>
    </mxGraphModel>
  </diagram>
</mxfile>
